<?xml version="1.0" standalone="no"?>
<!DOCTYPE svg PUBLIC "-//W3C//DTD SVG 20010904//EN"
 "http://www.w3.org/TR/2001/REC-SVG-20010904/DTD/svg10.dtd">
<svg version="1.0" xmlns="http://www.w3.org/2000/svg"
 width="1280.000000pt" height="1280.000000pt" viewBox="0 0 1280.000000 1280.000000"
 preserveAspectRatio="xMidYMid meet">

<g transform="translate(0.000000,1280.000000) scale(0.100000,-0.100000)"
fill="#ffffff" stroke="none">
<path d="M3925 9513 c-257 -37 -516 -186 -695 -401 -135 -161 -216 -315 -256
-487 -18 -75 -19 -137 -19 -995 l0 -915 22 -70 c13 -38 31 -106 42 -150 41
-171 101 -264 334 -514 47 -50 194 -150 284 -192 90 -42 208 -78 288 -89 39
-5 189 -12 334 -15 146 -3 268 -8 273 -13 4 -4 9 -390 10 -857 l3 -850 324 -3
c203 -1 328 1 336 8 14 12 20 4094 6 4133 l-9 24 -319 -4 c-175 -2 -323 -6
-330 -8 -8 -3 -11 -224 -11 -880 0 -533 -4 -881 -10 -887 -5 -5 -114 -8 -263
-6 -236 3 -258 5 -309 25 -87 36 -165 92 -233 170 -54 61 -68 85 -86 147 -22
73 -22 77 -21 897 1 907 0 904 62 1029 38 79 112 153 194 197 128 68 -59 64
2612 64 1600 -1 2436 -4 2472 -11 69 -13 182 -67 237 -115 57 -48 118 -143
145 -224 21 -65 22 -79 25 -666 2 -330 6 -606 8 -613 4 -10 75 -12 332 -10
l328 3 3 605 c3 661 -2 731 -54 887 -129 385 -445 669 -861 776 l-88 22 -2514
0 c-1897 0 -2534 -3 -2596 -12z"/>
<path d="M7933 8122 l-63 -3 0 -884 c0 -833 -1 -884 -17 -889 -10 -3 -513 -5
-1117 -5 -1053 1 -1100 0 -1113 -17 -11 -14 -13 -82 -11 -329 l3 -310 1035 -1
c569 -1 1077 -2 1127 -2 l93 -2 2 -857 3 -858 315 0 315 0 3 850 c1 467 6 853
11 858 5 5 98 8 208 8 198 0 200 0 284 -31 111 -41 192 -99 245 -178 83 -121
79 -70 79 -927 0 -418 -3 -803 -7 -855 -7 -82 -13 -106 -48 -177 -47 -96 -128
-176 -225 -224 -127 -62 10 -59 -2548 -59 -1387 0 -2377 4 -2443 9 -123 11
-189 32 -270 85 -64 43 -91 87 -145 237 -72 200 -70 187 -74 767 -2 287 -6
526 -9 531 -14 22 -108 31 -331 31 -263 0 -299 -6 -311 -56 -4 -15 -4 -177 -1
-358 3 -182 2 -423 -1 -536 -4 -113 -4 -253 0 -311 29 -393 276 -739 663 -932
62 -30 147 -59 245 -84 72 -17 178 -18 2620 -18 l2545 0 100 27 c190 51 355
130 461 221 27 23 89 85 137 137 134 145 181 221 233 378 63 190 70 313 69
1202 -1 815 -2 833 -52 985 -109 335 -384 617 -708 727 -171 58 -187 60 -450
65 -140 3 -254 9 -260 14 -6 7 -12 324 -15 892 l-5 882 -255 0 c-140 1 -283
-1 -317 -3z"/>
</g>
</svg>
